<svg width="259" height="208" viewBox="0 0 259 208" fill="none" xmlns="http://www.w3.org/2000/svg">
<g clip-path="url(#clip0_750_486)">
<path d="M94.2465 157.777C93.4624 155.902 93.3762 153.81 94.0036 151.878C94.631 149.946 95.9305 148.302 97.6675 147.242C98.2459 146.891 97.7171 145.982 97.1358 146.335C95.1436 147.521 93.6566 149.395 92.9565 151.601C92.2565 153.808 92.3918 156.193 93.337 158.307C93.6028 158.927 94.5104 158.392 94.2465 157.777Z" fill="#563D3D"/>
<path d="M94.5475 159.19C93.1269 156.679 93.4612 153.675 93.9722 150.961C94.5056 148.127 95.2049 145.25 94.5999 142.368C94.3255 140.969 93.676 139.67 92.7204 138.61C92.2602 138.111 91.5168 138.855 91.9756 139.352C93.7623 141.288 93.9694 144.095 93.6796 146.589C93.3378 149.53 92.3691 152.395 92.4894 155.384C92.5208 156.9 92.9146 158.386 93.638 159.72C93.711 159.835 93.826 159.917 93.9588 159.95C94.0915 159.982 94.2317 159.962 94.3497 159.893C94.4677 159.824 94.5543 159.712 94.5912 159.581C94.6281 159.45 94.6124 159.309 94.5475 159.19Z" fill="#563D3D"/>
<path d="M102.173 167.205H84.266C83.8471 167.205 83.4455 167.039 83.1493 166.743C82.8531 166.448 82.6865 166.047 82.686 165.63V160.384C82.6876 159.036 83.2252 157.744 84.1809 156.79C85.1367 155.837 86.4325 155.301 87.7841 155.3H90.4104C90.5501 155.3 90.6839 155.244 90.7827 155.146C90.8814 155.047 90.9369 154.914 90.9371 154.774V152.323C90.9374 152.091 91.0299 151.869 91.1945 151.705C91.359 151.54 91.5821 151.448 91.8149 151.448H94.6237C94.8564 151.448 95.0795 151.54 95.2441 151.705C95.4086 151.869 95.5012 152.091 95.5015 152.323V154.774C95.5016 154.914 95.5572 155.047 95.6559 155.146C95.7546 155.244 95.8885 155.3 96.0281 155.3H98.6545C100.006 155.301 101.302 155.837 102.258 156.79C103.213 157.744 103.751 159.036 103.753 160.384V165.63C103.752 166.047 103.585 166.448 103.289 166.743C102.993 167.039 102.591 167.205 102.173 167.205Z" fill="#CCCCCC"/>
<path d="M93.4945 135.704C93.8715 137.7 93.4048 139.462 92.452 139.641C91.4992 139.821 90.4212 138.348 90.0441 136.352C89.6671 134.357 90.8266 131.039 90.8266 131.039C90.8266 131.039 93.1175 133.709 93.4945 135.704Z" fill="#C74635"/>
<path d="M100.725 144.988C99.5308 146.633 97.9263 147.507 97.1409 146.94C96.3555 146.373 96.6867 144.579 97.8806 142.935C99.0746 141.29 102.288 139.848 102.288 139.848C102.288 139.848 101.919 143.343 100.725 144.988Z" fill="#C74635"/>
<path d="M61.2421 31.7161C60.458 29.8418 60.3719 27.7497 60.9992 25.8177C61.6266 23.8857 62.9261 22.2411 64.6631 21.1812C65.2415 20.8304 64.7127 19.9216 64.1314 20.2741C62.1392 21.4605 60.6522 23.3343 59.9521 25.5406C59.2521 27.747 59.3874 30.1328 60.3326 32.2463C60.5984 32.866 61.506 32.3314 61.2421 31.7161Z" fill="#563D3D"/>
<path d="M61.5436 33.1289C60.123 30.6188 60.4573 27.6148 60.9683 24.9003C61.5017 22.0667 62.201 19.1895 61.596 16.3076C61.3216 14.9083 60.6721 13.6094 59.7165 12.5489C59.2563 12.0505 58.5129 12.7949 58.9717 13.2918C60.7584 15.2271 60.9655 18.0347 60.6757 20.5281C60.3339 23.4691 59.3652 26.3349 59.4855 29.3233C59.5169 30.8392 59.9107 32.3256 60.6341 33.6591C60.7071 33.7744 60.8221 33.8569 60.9549 33.8892C61.0876 33.9215 61.2278 33.9011 61.3458 33.8323C61.4638 33.7635 61.5503 33.6517 61.5873 33.5205C61.6242 33.3893 61.6085 33.2489 61.5436 33.1289Z" fill="#563D3D"/>
<path d="M69.1681 41.1448H51.2616C50.8427 41.1443 50.4411 40.9782 50.1449 40.6827C49.8487 40.3873 49.6821 39.9868 49.6816 39.569V34.3233C49.6832 32.9754 50.2208 31.6831 51.1765 30.7299C52.1322 29.7767 53.428 29.2406 54.7796 29.2391H57.406C57.5456 29.2389 57.6795 29.1835 57.7782 29.085C57.877 28.9866 57.9325 28.8531 57.9327 28.7138V26.2626C57.9329 26.0305 58.0255 25.808 58.1901 25.6439C58.3546 25.4798 58.5777 25.3875 58.8104 25.3872H61.6193C61.852 25.3875 62.0751 25.4798 62.2397 25.6439C62.4042 25.808 62.4968 26.0305 62.4971 26.2626V28.7138C62.4972 28.8531 62.5528 28.9866 62.6515 29.085C62.7502 29.1835 62.8841 29.2389 63.0237 29.2391H65.6501C67.0017 29.2406 68.2975 29.7767 69.2532 30.7299C70.2089 31.6831 70.7465 32.9754 70.7481 34.3233V39.569C70.7476 39.9868 70.581 40.3873 70.2848 40.6827C69.9886 40.9782 69.587 41.1443 69.1681 41.1448Z" fill="#CCCCCC"/>
<path d="M60.4901 9.64351C60.8671 11.639 60.4004 13.4018 59.4476 13.5809C58.4948 13.7599 57.4168 12.2874 57.0398 10.2919C56.6627 8.29638 57.8222 4.97806 57.8222 4.97806C57.8222 4.97806 60.1131 7.648 60.4901 9.64351Z" fill="#C74635"/>
<path d="M67.7208 18.9273C66.5269 20.5722 64.9224 21.446 64.137 20.8789C63.3516 20.3119 63.6828 18.5189 64.8767 16.874C66.0706 15.2291 69.2841 13.7877 69.2841 13.7877C69.2841 13.7877 68.9147 17.2824 67.7208 18.9273Z" fill="#C74635"/>
<path d="M25.6308 95.2458H11.2354V100.498H25.6308V95.2458Z" fill="#C74635"/>
<path d="M25.6308 112.404H11.2354V117.657H25.6308V112.404Z" fill="#C74635"/>
<path d="M113.408 207.65H5.96883C4.38634 207.648 2.86918 207.02 1.75019 205.904C0.631203 204.788 0.00177405 203.275 0 201.697V5.95286C0.00177405 4.37461 0.631203 2.8615 1.75019 1.74551C2.86918 0.629514 4.38634 0.00176931 5.96883 0H113.408C114.99 0.00177671 116.507 0.629521 117.626 1.74551C118.745 2.86151 119.375 4.37461 119.377 5.95286V201.697C119.375 203.275 118.745 204.788 117.626 205.904C116.507 207.02 114.99 207.648 113.408 207.65ZM5.96883 0.700337C4.57252 0.701912 3.23386 1.25581 2.24652 2.2405C1.25918 3.2252 0.703795 4.56029 0.702215 5.95286V201.697C0.703795 203.09 1.25918 204.425 2.24652 205.409C3.23386 206.394 4.57252 206.948 5.96883 206.95H113.408C114.804 206.948 116.143 206.394 117.13 205.409C118.117 204.425 118.673 203.09 118.674 201.697V5.95286C118.673 4.56029 118.117 3.2252 117.13 2.2405C116.143 1.25581 114.804 0.701912 113.408 0.700337H5.96883Z" fill="#563D3D"/>
<path d="M119.025 40.4279H0.351074V41.1282H119.025V40.4279Z" fill="#563D3D"/>
<path d="M119.025 82.4592H0.351074V83.1595H119.025V82.4592Z" fill="#563D3D"/>
<path d="M119.025 124.49H0.351074V125.191H119.025V124.49Z" fill="#563D3D"/>
<path d="M119.025 166.522H0.351074V167.222H119.025V166.522Z" fill="#563D3D"/>
<path d="M24.5775 125.36H12.6398C12.1744 125.36 11.7282 125.175 11.3991 124.847C11.0699 124.519 10.8848 124.074 10.8843 123.609V89.6431C10.8848 89.1789 11.0699 88.7339 11.3991 88.4057C11.7282 88.0774 12.1744 87.8928 12.6398 87.8923H24.5775C25.0429 87.8928 25.4891 88.0774 25.8182 88.4057C26.1473 88.7339 26.3325 89.1789 26.333 89.6431V123.609C26.3325 124.074 26.1473 124.519 25.8182 124.847C25.4891 125.175 25.0429 125.36 24.5775 125.36ZM12.6398 88.5926C12.3606 88.5929 12.0928 88.7037 11.8954 88.9006C11.6979 89.0976 11.5868 89.3646 11.5865 89.6431V123.609C11.5868 123.888 11.6979 124.155 11.8954 124.352C12.0928 124.549 12.3606 124.66 12.6398 124.66H24.5775C24.8567 124.66 25.1245 124.549 25.3219 124.352C25.5194 124.155 25.6305 123.888 25.6308 123.609V89.6431C25.6305 89.3646 25.5194 89.0976 25.3219 88.9006C25.1245 88.7037 24.8567 88.5929 24.5775 88.5926H12.6398Z" fill="#563D3D"/>
<path d="M47.7504 95.2458H33.355V100.498H47.7504V95.2458Z" fill="#C74635"/>
<path d="M47.7504 112.404H33.355V117.657H47.7504V112.404Z" fill="#C74635"/>
<path d="M46.6971 125.36H34.7594C34.294 125.36 33.8478 125.175 33.5187 124.847C33.1896 124.519 33.0044 124.074 33.0039 123.609V89.6431C33.0044 89.1789 33.1896 88.7339 33.5187 88.4057C33.8478 88.0774 34.294 87.8928 34.7594 87.8923H46.6971C47.1625 87.8928 47.6088 88.0774 47.9379 88.4057C48.267 88.7339 48.4521 89.1789 48.4526 89.6431V123.609C48.4521 124.074 48.267 124.519 47.9379 124.847C47.6088 125.175 47.1625 125.36 46.6971 125.36ZM34.7594 88.5926C34.4802 88.5929 34.2124 88.7037 34.015 88.9006C33.8175 89.0976 33.7064 89.3646 33.7061 89.6431V123.609C33.7064 123.888 33.8175 124.155 34.015 124.352C34.2124 124.549 34.4802 124.66 34.7594 124.66H46.6971C46.9764 124.66 47.2441 124.549 47.4416 124.352C47.639 124.155 47.7501 123.888 47.7504 123.609V89.6431C47.7501 89.3646 47.639 89.0976 47.4416 88.9006C47.2441 88.7037 46.9764 88.5929 46.6971 88.5926H34.7594Z" fill="#563D3D"/>
<path d="M82.8612 52.8754H68.4658V58.128H82.8612V52.8754Z" fill="#C74635"/>
<path d="M82.8612 70.0337H68.4658V75.2862H82.8612V70.0337Z" fill="#C74635"/>
<path d="M81.8079 82.9899H69.8703C69.4049 82.9894 68.9586 82.8047 68.6295 82.4765C68.3004 82.1483 68.1153 81.7032 68.1147 81.2391V47.2727C68.1153 46.8085 68.3004 46.3635 68.6295 46.0353C68.9586 45.7071 69.4049 45.5224 69.8703 45.5219H81.8079C82.2734 45.5224 82.7196 45.7071 83.0487 46.0353C83.3778 46.3635 83.5629 46.8085 83.5635 47.2727V81.2391C83.5629 81.7032 83.3778 82.1483 83.0487 82.4765C82.7196 82.8047 82.2734 82.9894 81.8079 82.9899ZM69.8703 46.2222C69.591 46.2225 69.3233 46.3333 69.1258 46.5303C68.9284 46.7272 68.8173 46.9942 68.817 47.2727V81.2391C68.8173 81.5176 68.9284 81.7846 69.1258 81.9815C69.3233 82.1785 69.591 82.2892 69.8703 82.2896H81.8079C82.0872 82.2893 82.3549 82.1785 82.5524 81.9815C82.7499 81.7846 82.861 81.5176 82.8613 81.2391V47.2727C82.861 46.9942 82.7499 46.7272 82.5524 46.5302C82.3549 46.3333 82.0872 46.2225 81.8079 46.2222H69.8703Z" fill="#563D3D"/>
<path d="M104.981 52.8754H90.5859V58.128H104.981V52.8754Z" fill="#C74635"/>
<path d="M104.981 70.0337H90.5859V75.2862H104.981V70.0337Z" fill="#C74635"/>
<path d="M103.928 82.9899H91.9904C91.525 82.9894 91.0788 82.8047 90.7496 82.4765C90.4205 82.1483 90.2354 81.7032 90.2349 81.2391V47.2727C90.2354 46.8085 90.4205 46.3635 90.7496 46.0353C91.0788 45.7071 91.525 45.5224 91.9904 45.5219H103.928C104.393 45.5224 104.84 45.7071 105.169 46.0353C105.498 46.3635 105.683 46.8085 105.684 47.2727V81.2391C105.683 81.7032 105.498 82.1483 105.169 82.4765C104.84 82.8047 104.393 82.9894 103.928 82.9899ZM91.9904 46.2222C91.7111 46.2225 91.4434 46.3333 91.2459 46.5302C91.0485 46.7272 90.9374 46.9942 90.9371 47.2727V81.2391C90.9374 81.5176 91.0485 81.7846 91.2459 81.9815C91.4434 82.1785 91.7111 82.2893 91.9904 82.2896H103.928C104.207 82.2893 104.475 82.1785 104.673 81.9815C104.87 81.7846 104.981 81.5176 104.981 81.2391V47.2727C104.981 46.9942 104.87 46.7272 104.673 46.5302C104.475 46.3333 104.207 46.2225 103.928 46.2222H91.9904Z" fill="#563D3D"/>
<path d="M65.4076 92.1089L51.9321 97.1591L53.7847 102.076L67.2601 97.0258L65.4076 92.1089Z" fill="#C74635"/>
<path d="M71.4593 108.171L57.9839 113.221L59.8364 118.138L73.3119 113.088L71.4593 108.171Z" fill="#C74635"/>
<path d="M63.25 124.969C62.893 124.968 62.5446 124.859 62.2512 124.656C61.9579 124.453 61.7333 124.166 61.6075 123.833L49.6277 92.0375C49.4645 91.6028 49.4809 91.1213 49.6732 90.6986C49.8655 90.2759 50.218 89.9466 50.6534 89.7828L61.8283 85.5949C62.0441 85.514 62.2738 85.4763 62.5042 85.4839C62.7346 85.4916 62.9613 85.5444 63.1712 85.6394C63.3812 85.7344 63.5703 85.8698 63.7278 86.0377C63.8853 86.2056 64.0081 86.4028 64.0891 86.6181L76.069 118.414C76.2322 118.848 76.2158 119.33 76.0235 119.753C75.8312 120.175 75.4787 120.505 75.0432 120.668L63.8684 124.856C63.6708 124.931 63.4613 124.969 63.25 124.969ZM62.4464 86.1828C62.3196 86.1829 62.1939 86.2059 62.0753 86.2505L50.9005 90.4383C50.6392 90.5366 50.4277 90.7343 50.3123 90.9879C50.1969 91.2415 50.1871 91.5304 50.285 91.7913L62.2649 123.587C62.3135 123.716 62.3872 123.834 62.4817 123.935C62.5762 124.036 62.6897 124.117 62.8157 124.174C62.9416 124.231 63.0776 124.263 63.2159 124.267C63.3541 124.272 63.4919 124.249 63.6214 124.201L74.7962 120.013C75.0575 119.915 75.269 119.717 75.3844 119.463C75.4998 119.21 75.5096 118.921 75.4117 118.66L63.4318 86.8643C63.3563 86.6644 63.2216 86.4921 63.0456 86.3704C62.8696 86.2487 62.6606 86.1832 62.4464 86.1828Z" fill="#563D3D"/>
<path d="M16.9549 50.4389L3.47949 55.489L5.33205 60.4059L18.8075 55.3558L16.9549 50.4389Z" fill="#C74635"/>
<path d="M23.0067 66.5006L9.53125 71.5507L11.3838 76.4676L24.8592 71.4175L23.0067 66.5006Z" fill="#C74635"/>
<path d="M14.7969 83.299C14.4398 83.2983 14.0915 83.1893 13.7981 82.9864C13.5047 82.7834 13.2802 82.4963 13.1544 82.163L1.17455 50.3675C1.01138 49.9328 1.02775 49.4513 1.22004 49.0286C1.41233 48.6059 1.76486 48.2766 2.20031 48.1127L13.3752 43.9249C13.591 43.844 13.8206 43.8063 14.0511 43.8139C14.2815 43.8216 14.5081 43.8744 14.7181 43.9694C14.928 44.0644 15.1172 44.1997 15.2747 44.3677C15.4322 44.5356 15.5549 44.7328 15.636 44.9481L27.6159 76.7436C27.779 77.1783 27.7627 77.6598 27.5704 78.0825C27.3781 78.5052 27.0256 78.8345 26.5901 78.9984L15.4153 83.1862C15.2176 83.2606 15.0081 83.2989 14.7969 83.299ZM13.9933 44.5128C13.8665 44.5129 13.7408 44.5359 13.6222 44.5805L2.4474 48.7683C2.1861 48.8666 1.97456 49.0642 1.85918 49.3179C1.74379 49.5715 1.73398 49.8604 1.83189 50.1213L13.8118 81.9168C13.8604 82.046 13.9341 82.1643 14.0286 82.265C14.1231 82.3658 14.2366 82.447 14.3625 82.504C14.4885 82.561 14.6245 82.5927 14.7627 82.5972C14.901 82.6018 15.0388 82.5792 15.1683 82.5306L26.343 78.3428C26.6043 78.2445 26.8159 78.0469 26.9313 77.7932C27.0466 77.5396 27.0565 77.2507 26.9585 76.9899L14.9787 45.1943C14.9032 44.9944 14.7685 44.8221 14.5925 44.7004C14.4165 44.5786 14.2075 44.5132 13.9933 44.5128Z" fill="#563D3D"/>
<path d="M220.145 87.5421C226.156 87.5421 231.029 82.6821 231.029 76.6869C231.029 70.6917 226.156 65.8317 220.145 65.8317C214.133 65.8317 209.26 70.6917 209.26 76.6869C209.26 82.6821 214.133 87.5421 220.145 87.5421Z" fill="#4A3A3A"/>
<path d="M171.79 126.226C172.304 126.424 172.856 126.508 173.406 126.471C173.956 126.434 174.491 126.277 174.974 126.012C175.457 125.746 175.876 125.378 176.201 124.934C176.525 124.489 176.749 123.979 176.854 123.44L206.782 104.608L201.335 98.4917L173.617 118.938C172.696 118.821 171.764 119.045 170.997 119.567C170.231 120.09 169.683 120.874 169.458 121.773C169.233 122.671 169.346 123.62 169.776 124.441C170.205 125.262 170.922 125.897 171.79 126.226Z" fill="#FFB8B8"/>
<path d="M200.534 109.615C200.269 109.615 200.008 109.549 199.775 109.423C199.542 109.297 199.345 109.114 199.202 108.892L195.736 103.521C195.517 103.182 195.437 102.772 195.512 102.376C195.587 101.98 195.812 101.627 196.139 101.391L207.736 93.0316C208.299 92.626 208.938 92.337 209.614 92.1817C210.291 92.0265 210.992 92.0082 211.676 92.128C212.36 92.2477 213.013 92.503 213.596 92.8788C214.179 93.2546 214.681 93.7432 215.071 94.3158C215.462 94.8883 215.733 95.5332 215.87 96.2122C216.006 96.8912 216.004 97.5906 215.865 98.269C215.725 98.9474 215.451 99.5909 215.057 100.162C214.664 100.732 214.16 101.219 213.575 101.592L201.381 109.367C201.128 109.529 200.834 109.615 200.534 109.615Z" fill="#C74635"/>
<path d="M205.712 203.395L201.407 203.395L199.359 186.836L205.713 186.837L205.712 203.395Z" fill="#FFB8B8"/>
<path d="M198.333 202.168H206.634V207.381H193.106C193.106 206.697 193.241 206.019 193.504 205.386C193.767 204.754 194.152 204.179 194.637 203.695C195.122 203.211 195.698 202.827 196.333 202.565C196.967 202.303 197.646 202.168 198.333 202.168Z" fill="#4A3A3A"/>
<path d="M225.807 200.186L221.663 201.346L215.203 185.956L221.32 184.243L225.807 200.186Z" fill="#FFB8B8"/>
<path d="M218.37 200.994L226.363 198.756L227.776 203.775L214.751 207.422C214.565 206.762 214.512 206.073 214.593 205.394C214.675 204.714 214.889 204.057 215.226 203.46C215.562 202.863 216.012 202.338 216.552 201.915C217.092 201.492 217.709 201.179 218.37 200.994Z" fill="#4A3A3A"/>
<path d="M237.405 174.774L220.693 155.104L230.834 142.833C230.983 142.653 231.169 142.508 231.381 142.409C231.593 142.31 231.824 142.259 232.058 142.26C232.291 142.26 232.522 142.313 232.733 142.413C232.944 142.514 233.13 142.659 233.278 142.84L248.622 161.621L237.405 174.774Z" fill="#C74635"/>
<path d="M221.368 155.251C221.614 154.809 221.92 154.402 222.276 154.042L231.955 144.255C232.334 143.87 232.845 143.641 233.386 143.614C234.492 143.562 236.306 143.674 236.811 144.884L223.744 155.547L221.368 155.251Z" fill="#F2F2F2"/>
<path d="M237.986 178.936C237.241 178.914 236.516 178.685 235.894 178.275L235.848 178.227L220.542 154.882L223.082 154.637L236.693 144.049C236.865 143.915 237.063 143.818 237.274 143.765C237.485 143.711 237.705 143.701 237.92 143.736C238.135 143.771 238.341 143.85 238.524 143.969C238.707 144.087 238.863 144.241 238.983 144.423L253.862 166.882C254.09 167.228 254.173 167.651 254.091 168.058C254.01 168.465 253.772 168.823 253.427 169.056L239.03 178.739C238.698 178.87 238.343 178.937 237.986 178.936Z" fill="#C74635"/>
<path d="M232.572 162.966C232.428 162.966 232.287 162.931 232.159 162.864C232.032 162.797 231.924 162.699 231.843 162.58L230.085 159.975C229.955 159.783 229.907 159.546 229.952 159.319C229.996 159.091 230.13 158.89 230.323 158.76L239.343 152.704C239.536 152.574 239.773 152.527 240.001 152.571C240.23 152.616 240.431 152.749 240.562 152.941L242.32 155.546C242.449 155.738 242.497 155.974 242.453 156.202C242.408 156.43 242.275 156.631 242.082 156.761L233.061 162.817C232.917 162.914 232.747 162.966 232.572 162.966Z" fill="#563D3D"/>
<path d="M198.678 200.891C198.198 200.889 197.736 200.708 197.383 200.384C197.029 200.06 196.81 199.616 196.769 199.139C196.003 190.46 192.16 146.718 191.738 137.885C191.27 128.07 199.46 112.543 199.543 112.387L199.599 112.281L203.648 112.785V113.254L207.501 113.707L214.958 114.426L217.093 140.45L218.036 158.1L226.905 194.147C227.006 194.546 226.945 194.969 226.735 195.324C226.526 195.678 226.185 195.937 225.786 196.043L218.068 198.142C217.667 198.25 217.239 198.196 216.877 197.992C216.515 197.789 216.248 197.452 216.133 197.053L208.865 171.594C208.83 171.471 208.751 171.364 208.643 171.295C208.535 171.226 208.405 171.199 208.278 171.219C208.151 171.238 208.036 171.304 207.954 171.402C207.872 171.501 207.829 171.626 207.833 171.754L208.601 196.579C208.605 196.834 208.557 197.087 208.459 197.323C208.361 197.558 208.217 197.771 208.033 197.949C206.264 199.606 201.589 200.491 198.96 200.871C198.867 200.884 198.773 200.891 198.678 200.891Z" fill="#4A3A3A"/>
<path d="M221.871 91.5314C220.647 90.258 212.576 92.0079 210.785 93.8839L198.519 113.881L218.805 117.645L223.287 92.2371L221.871 91.5314Z" fill="#C74635"/>
<path d="M230.277 145.216C230.719 144.887 231.083 144.466 231.344 143.981C231.605 143.497 231.756 142.961 231.787 142.412C231.818 141.863 231.728 141.314 231.523 140.803C231.318 140.292 231.003 139.833 230.601 139.457L230.501 104.165L222.411 105.519L225.057 139.801C224.468 140.517 224.163 141.424 224.2 142.349C224.237 143.274 224.612 144.154 225.256 144.821C225.899 145.488 226.766 145.897 227.691 145.97C228.617 146.043 229.537 145.775 230.277 145.216Z" fill="#FFB8B8"/>
<path d="M223.69 112.921C223.29 112.921 222.904 112.769 222.611 112.496C222.318 112.222 222.141 111.848 222.114 111.449L221.173 97.2093C221.085 95.8392 221.544 94.4899 222.451 93.4572C223.359 92.4246 224.64 91.793 226.013 91.701C226.719 91.6547 227.426 91.7525 228.092 91.9883C228.758 92.2241 229.369 92.5931 229.887 93.0726C230.405 93.552 230.819 94.1319 231.105 94.7768C231.39 95.4216 231.541 96.1177 231.547 96.8226L231.675 111.256C231.678 111.673 231.515 112.074 231.223 112.372C230.93 112.67 230.532 112.841 230.114 112.846L223.71 112.921L223.69 112.921Z" fill="#C74635"/>
<path d="M217.902 88.0942C222.665 88.0942 226.526 84.2437 226.526 79.4937C226.526 74.7438 222.665 70.8932 217.902 70.8932C213.14 70.8932 209.279 74.7438 209.279 79.4937C209.279 84.2437 213.14 88.0942 217.902 88.0942Z" fill="#FFB8B8"/>
<path d="M225.072 85.5118C225.716 83.4704 226.306 81.0635 225.033 79.3409C224.116 78.0998 222.469 77.6193 220.925 77.5505C219.381 77.4818 217.832 77.7428 216.291 77.6207C214.75 77.4985 213.121 76.8919 212.338 75.5624C211.323 73.8384 212.183 71.464 213.815 70.303C215.447 69.142 217.603 68.9799 219.589 69.2503C222.102 69.5479 224.465 70.6019 226.362 72.2722C228.209 73.9715 229.412 76.421 229.358 78.926C229.305 81.4311 227.896 83.9256 225.651 85.0504" fill="#4A3A3A"/>
<path d="M222.922 66.719C220.858 66.0848 219.906 63.3627 220.829 61.415C221.752 59.4673 224.112 58.4474 226.255 58.7187C228.398 58.99 230.286 60.3612 231.589 62.0799C232.891 63.7986 233.676 65.8473 234.331 67.9003C234.986 69.9533 235.531 72.0507 236.425 74.0118C237.844 77.0248 240.034 79.6123 242.773 81.5142C245.513 83.4162 248.706 84.5655 252.032 84.8469C253.482 84.9516 254.986 84.8766 256.307 84.2722C257.628 83.6679 258.736 82.4494 258.884 81.0073C259.636 86.1299 256.648 91.574 251.916 93.7028C247.184 95.8315 241.115 94.462 237.762 90.5093C234.486 86.6465 233.978 81.1929 234.057 76.1341C234.079 74.7469 234.13 73.3334 233.746 72C233.362 70.6666 232.452 69.3988 231.127 68.9753C230.059 68.6336 228.901 68.8799 227.805 69.1222C226.709 69.3644 225.546 69.5976 224.485 69.2324C223.424 68.8672 222.57 67.6639 222.997 66.6289" fill="#4A3A3A"/>
<path d="M257.04 208H164.347C164.254 208 164.165 207.963 164.099 207.897C164.033 207.832 163.996 207.743 163.996 207.65C163.996 207.557 164.033 207.468 164.099 207.402C164.165 207.337 164.254 207.3 164.347 207.3H257.04C257.133 207.3 257.222 207.337 257.288 207.402C257.354 207.468 257.391 207.557 257.391 207.65C257.391 207.743 257.354 207.832 257.288 207.897C257.222 207.963 257.133 208 257.04 208Z" fill="#CCCCCC"/>
</g>
<defs>
<clipPath id="clip0_750_486">
<rect width="259" height="208" fill="white"/>
</clipPath>
</defs>
</svg>
