<svg width="273" height="252" viewBox="0 0 273 252" fill="none" xmlns="http://www.w3.org/2000/svg">
<g clip-path="url(#clip0_751_1032)">
<path d="M248.716 201.892L226.555 169.012C226.555 169.012 260.116 180.715 256.307 201.892H248.716Z" fill="#412E2E"/>
<path d="M18.9975 202.11L18.1562 202.094C18.4816 192.75 19.4797 183.442 21.1427 174.242C24.7806 154.544 30.8299 141.607 39.1225 135.791L39.6056 136.479C20.234 150.065 19.0074 201.591 18.9975 202.11Z" fill="#412E2E"/>
<path d="M29.5137 201.909L28.6724 201.893C28.6905 200.962 29.2163 179.029 37.8605 172.967L38.3436 173.655C30.0481 179.473 29.5178 201.685 29.5137 201.909Z" fill="#412E2E"/>
<path d="M44.3915 136.556C46.7147 136.556 48.598 134.674 48.598 132.354C48.598 130.033 46.7147 128.152 44.3915 128.152C42.0684 128.152 40.1851 130.033 40.1851 132.354C40.1851 134.674 42.0684 136.556 44.3915 136.556Z" fill="#C74635"/>
<path d="M42.3085 172.69C44.6317 172.69 46.515 170.809 46.515 168.488C46.515 166.168 44.6317 164.287 42.3085 164.287C39.9854 164.287 38.1021 166.168 38.1021 168.488C38.1021 170.809 39.9854 172.69 42.3085 172.69Z" fill="#C74635"/>
<path d="M27.553 139.074C28.3435 144.118 26.2831 148.629 26.2831 148.629C26.2831 148.629 22.9409 144.963 22.1504 139.919C21.3598 134.875 23.4202 130.364 23.4202 130.364C23.4202 130.364 26.7624 134.031 27.553 139.074Z" fill="#412E2E"/>
<path d="M41.3028 151.324C36.4683 152.98 31.6621 151.74 31.6621 151.74C31.6621 151.74 34.6941 147.813 39.5286 146.157C44.3631 144.501 49.1693 145.741 49.1693 145.741C49.1693 145.741 46.1373 149.667 41.3028 151.324Z" fill="#412E2E"/>
<path d="M41.458 183.324C39.27 184.011 36.9398 184.111 34.7007 183.616C36.1224 181.808 38.0373 180.449 40.2145 179.703C42.3916 178.957 44.7383 178.856 46.9718 179.411C45.5086 181.175 43.6073 182.525 41.458 183.324Z" fill="#412E2E"/>
<path d="M272.579 202.732H0.420647C0.309085 202.732 0.202097 202.688 0.123211 202.609C0.0443242 202.53 0 202.424 0 202.312C0 202.201 0.0443242 202.094 0.123211 202.015C0.202097 201.936 0.309085 201.892 0.420647 201.892H272.579C272.691 201.892 272.798 201.936 272.877 202.015C272.956 202.094 273 202.201 273 202.312C273 202.424 272.956 202.53 272.877 202.609C272.798 202.688 272.691 202.732 272.579 202.732Z" fill="#CBCBCB"/>
<path d="M172.378 222.102L168.937 231.049L132.751 222.047L137.83 208.843L172.378 222.102Z" fill="#FFB7B7"/>
<path d="M181.938 223.152L170.842 252L170.476 251.86C167.495 250.716 165.091 248.435 163.793 245.521C162.495 242.606 162.409 239.296 163.554 236.318L163.554 236.317L170.331 218.697L181.938 223.152Z" fill="#2F2E41"/>
<path d="M117.392 110.081L101.623 111.556L100.84 158.422C101.049 160.719 102.151 162.843 103.908 164.339C105.666 165.834 107.94 166.583 110.243 166.425L120.241 165.737L117.392 110.081Z" fill="#412E2E"/>
<path d="M172.986 107.774L162.196 107.635L161.557 163.323C163.941 163.402 166.316 162.99 168.534 162.112C170.752 161.234 172.765 159.909 174.447 158.219C176.129 156.53 177.445 154.512 178.312 152.292C179.18 150.073 179.58 147.698 179.487 145.317L172.986 107.774Z" fill="#412E2E"/>
<path d="M110.378 183.106C110.123 184.721 109.752 186.316 109.268 187.878C108.724 189.408 107.883 190.822 107.386 192.367C105.799 197.292 107.999 202.783 111.512 206.585C114.559 209.868 118.492 212.201 122.836 213.301C126.006 214.098 129.302 214.212 132.568 214.323C141.613 214.629 150.891 214.903 159.462 212C162.17 211.06 164.785 209.873 167.275 208.454C168.061 208.08 168.754 207.535 169.302 206.86C169.956 205.93 170.04 204.725 170.034 203.589C170.015 199.759 169.237 195.948 169.422 192.122C169.524 190.003 169.921 187.886 169.726 185.773C169.455 183.374 168.449 181.117 166.845 179.311C165.241 177.505 163.117 176.238 160.764 175.684C158.333 175.163 155.811 175.447 153.336 175.685C146.911 176.301 140.458 176.59 134.003 176.548C127.408 176.506 120.854 175.5 114.291 175.395C112.351 175.364 112.39 175.962 111.772 177.838C111.203 179.565 110.738 181.324 110.378 183.106Z" fill="#2F2E41"/>
<path d="M84.5887 179.993C82.8152 179.548 80.9879 179.354 79.1603 179.417C77.2402 179.523 75.3646 180.036 73.6583 180.922C71.9521 181.808 70.4542 183.047 69.2644 184.556C68.0745 186.065 67.22 187.81 66.7575 189.674C66.295 191.539 66.2352 193.48 66.5821 195.37C67.0249 197.416 67.7488 199.392 68.7331 201.241C70.1727 204.159 71.8993 207.071 74.5644 208.941C76.1234 210.035 77.9277 210.717 79.7106 211.388L93.7471 216.669C95.812 217.446 97.8772 218.223 99.9626 218.944C110.439 222.561 121.362 224.73 132.427 225.391C135.797 225.591 139.219 225.647 142.507 224.88C143.287 224.699 144.119 224.427 144.571 223.766C144.839 223.301 144.996 222.78 145.032 222.245L145.896 216.205C146.018 215.354 146.135 214.459 145.823 213.659C145.427 212.644 144.435 212.005 143.49 211.463C134.262 206.169 123.487 203.248 115.72 195.982C113.891 194.271 112.361 191.56 110.139 190.398C107.62 189.08 104.653 188.328 102.049 187.114C96.3558 184.46 90.7586 181.41 84.5887 179.993Z" fill="#2F2E41"/>
<path opacity="0.1" d="M98.6022 188.136C103.564 189.688 124.51 200.447 128.1 204.203C127.619 204.376 111.291 195.236 110.801 195.089C106.347 193.754 101.869 192.41 97.6396 190.456C96.7888 190.063 92.1121 188.215 92.3239 187.143C92.5629 185.933 97.7215 187.86 98.6022 188.136Z" fill="black"/>
<path d="M128.544 94.3286L115.186 104.46C115.186 104.46 101.091 104.9 101.567 113.9C102.043 122.9 107.685 165.513 107.685 165.513L108.909 180.175L132.125 186.782C144.67 190.353 157.923 190.636 170.609 187.606L167.85 172.897C167.85 172.897 179.022 106.093 172.291 103.152C165.561 100.211 161.354 101.051 161.354 101.051L152.918 93.6983L128.544 94.3286Z" fill="#412E2E"/>
<path d="M168.085 77.9645C168.085 91.1163 155.91 89.127 140.892 89.127C125.873 89.127 113.699 91.1163 113.699 77.9645C113.699 64.8128 119.646 41.5004 140.892 41.5004C162.87 41.5004 168.085 64.8128 168.085 77.9645Z" fill="#2F2E41"/>
<path d="M155.028 82.4216C162.173 75.2838 162.173 63.7111 155.028 56.5733C147.882 49.4355 136.296 49.4355 129.15 56.5733C122.004 63.7111 122.004 75.2838 129.15 82.4216C136.296 89.5594 147.882 89.5594 155.028 82.4216Z" fill="#FFB7B7"/>
<path d="M119.659 69.0345H126.897L130.089 60.1045L130.728 69.0345H134.187L136.05 63.8253L136.422 69.0345H162.125C162.125 63.903 160.084 58.9817 156.452 55.3532C152.819 51.7247 147.892 49.6862 142.755 49.6862H139.03C133.892 49.6862 128.965 51.7247 125.333 55.3532C121.7 58.9817 119.659 63.903 119.659 69.0345Z" fill="#2F2E41"/>
<path d="M159.252 96.4294H122.655V140.547H159.252V96.4294Z" fill="#C74635"/>
<path d="M124.672 221.682L128.114 230.629L164.299 221.627L159.22 208.423L124.672 221.682Z" fill="#FFB7B7"/>
<path d="M126.719 218.277L133.496 235.897L133.496 235.897C134.641 238.875 134.555 242.186 133.257 245.101C131.959 248.015 129.555 250.295 126.573 251.44L126.208 251.58L115.112 222.732L126.719 218.277Z" fill="#2F2E41"/>
<path d="M197.004 176.568C199.911 175.84 202.924 175.635 205.903 175.961C208.283 176.223 210.734 176.884 212.471 178.529C214.585 180.531 215.265 183.627 215.321 186.537C215.414 192.332 213.49 197.979 209.877 202.515C208.995 203.662 207.946 204.671 206.765 205.508C205.491 206.304 204.133 206.957 202.715 207.457L171.281 219.841C163.012 223.099 154.713 226.367 146.087 228.515C145.618 228.741 145.079 228.772 144.587 228.6C144.095 228.429 143.692 228.069 143.466 227.601C143.459 227.587 143.452 227.572 143.445 227.558C140.691 223.628 138.381 219.406 136.556 214.969C136.469 214.864 136.41 214.739 136.382 214.606C136.354 214.473 136.358 214.334 136.395 214.203C136.432 214.072 136.5 213.952 136.593 213.852C136.687 213.753 136.802 213.677 136.931 213.632L159.165 200.872C160.757 199.958 162.368 199.031 163.69 197.757C164.651 196.827 165.438 195.733 166.013 194.527C166.474 193.565 166.517 191.296 167.106 190.585C167.682 189.889 169.654 189.834 170.565 189.56C171.849 189.167 173.106 188.692 174.33 188.138C179.303 185.916 183.732 182.687 188.5 180.085C191.174 178.558 194.031 177.376 197.004 176.568Z" fill="#2F2E41"/>
<path opacity="0.1" d="M184.399 186.098C180.579 188.963 175.633 191.598 171.848 194.539C170.555 195.543 149.016 207.638 148.712 209.245C152.244 209.839 174.743 194.117 177.962 192.549C181.181 190.98 184.034 188.767 186.862 186.571C187.583 186.012 190.637 184.33 188.568 183.704C187.403 183.352 185.259 185.525 184.399 186.098Z" fill="black"/>
<path d="M253.056 75.5107C260.315 75.5107 266.2 69.6325 266.2 62.3813C266.2 55.1302 260.315 49.252 253.056 49.252C245.797 49.252 239.912 55.1302 239.912 62.3813C239.912 69.6325 245.797 75.5107 253.056 75.5107Z" fill="#F1F1F1"/>
<path d="M228.729 77.8623C233.821 77.8623 237.95 73.7388 237.95 68.6521C237.95 63.5655 233.821 59.442 228.729 59.442C223.637 59.442 219.508 63.5655 219.508 68.6521C219.508 73.7388 223.637 77.8623 228.729 77.8623Z" fill="#F1F1F1"/>
<path d="M59.8215 71.8542C63.9047 71.8542 67.2148 68.5479 67.2148 64.4693C67.2148 60.3908 63.9047 57.0844 59.8215 57.0844C55.7383 57.0844 52.4282 60.3908 52.4282 64.4693C52.4282 68.5479 55.7383 71.8542 59.8215 71.8542Z" fill="#F1F1F1"/>
<path d="M71.994 76.8202C74.8583 76.8202 77.1803 74.5008 77.1803 71.6397C77.1803 68.7787 74.8583 66.4593 71.994 66.4593C69.1296 66.4593 66.8076 68.7787 66.8076 71.6397C66.8076 74.5008 69.1296 76.8202 71.994 76.8202Z" fill="#F1F1F1"/>
<path d="M143.715 11.2902C146.837 11.2902 149.367 8.76277 149.367 5.64508C149.367 2.52739 146.837 0 143.715 0C140.594 0 138.064 2.52739 138.064 5.64508C138.064 8.76277 140.594 11.2902 143.715 11.2902Z" fill="#F1F1F1"/>
<path opacity="0.17" d="M110.036 124.581L110.541 120.686C110.541 120.686 129.385 122.06 126.441 126.682C123.496 131.304 116.345 131.724 116.345 131.724L110.036 124.581Z" fill="#2F2E41"/>
<path d="M124.26 107.645C125.34 107.764 126.379 108.12 127.305 108.687C128.23 109.255 129.018 110.02 129.613 110.928C130.154 111.756 130.523 112.685 130.696 113.66C130.869 114.634 130.843 115.633 130.619 116.597C130.396 117.561 129.98 118.47 129.396 119.269C128.813 120.068 128.073 120.742 127.222 121.248C126.91 121.432 126.585 121.592 126.248 121.727L114.665 157.116C114.33 157.815 113.859 158.44 113.281 158.956C112.702 159.472 112.028 159.869 111.295 160.123C110.563 160.378 109.787 160.486 109.013 160.44C108.239 160.394 107.482 160.196 106.784 159.857C106.087 159.518 105.464 159.045 104.95 158.464C104.437 157.884 104.043 157.208 103.792 156.475C103.541 155.742 103.438 154.967 103.488 154.194C103.538 153.421 103.74 152.665 104.083 151.971L116.402 116.974C116.066 115.816 116.021 114.593 116.272 113.414C116.522 112.235 117.059 111.135 117.836 110.213C118.613 109.29 119.606 108.574 120.726 108.126C121.847 107.678 123.061 107.513 124.26 107.645Z" fill="#FFB7B7"/>
<path d="M110.209 121.018C110.209 121.018 116.846 132.344 126.441 126.682L117.142 162.227H109.307L101.202 160.715L103.471 146.029L110.209 121.018Z" fill="#412E2E"/>
<path d="M157.599 128.759L152.101 121.219C152.101 121.219 154.743 113.399 164.99 116.259C164.99 116.259 171.51 130.837 157.599 128.759Z" fill="#412E2E"/>
<path opacity="0.17" d="M157.599 128.759L152.101 121.219C152.101 121.219 154.743 113.399 164.99 116.259C164.99 116.259 171.51 130.837 157.599 128.759Z" fill="#2F2E41"/>
<path d="M159.054 102.416C160.64 103.153 161.909 104.434 162.63 106.026C163.35 107.618 163.475 109.415 162.981 111.091L175.299 146.088C175.642 146.783 175.845 147.539 175.895 148.312C175.945 149.085 175.841 149.86 175.59 150.593C175.339 151.326 174.946 152.002 174.432 152.582C173.919 153.163 173.295 153.636 172.598 153.975C171.901 154.315 171.143 154.513 170.369 154.558C169.595 154.604 168.819 154.496 168.087 154.241C167.355 153.987 166.68 153.59 166.102 153.074C165.523 152.558 165.053 151.932 164.717 151.234L153.134 115.844C152.798 115.71 152.472 115.55 152.16 115.366C151.309 114.859 150.57 114.186 149.986 113.387C149.402 112.587 148.986 111.679 148.763 110.715C148.54 109.751 148.514 108.752 148.687 107.777C148.86 106.803 149.228 105.874 149.77 105.045C150.364 104.138 151.152 103.372 152.078 102.805C153.003 102.237 154.043 101.881 155.122 101.763C156.468 101.61 157.83 101.837 159.054 102.416Z" fill="#FFB7B7"/>
<path d="M152.101 121.219C152.101 121.219 161.172 126.718 164.99 116.259L177.773 149.878L173.974 156.514L173.425 156.559C171.159 156.748 168.881 156.385 166.787 155.5C164.692 154.615 162.844 153.236 161.401 151.481C158.458 147.901 156.454 143.645 155.571 139.097L152.101 121.219Z" fill="#412E2E"/>
</g>
<defs>
<clipPath id="clip0_751_1032">
<rect width="273" height="252" fill="white"/>
</clipPath>
</defs>
</svg>
