<svg width="153" height="153" viewBox="0 0 153 153" fill="none" xmlns="http://www.w3.org/2000/svg">
<path fill-rule="evenodd" clip-rule="evenodd" d="M76.5 153C118.75 153 153 118.75 153 76.5C153 34.2502 118.75 0 76.5 0C34.2502 0 0 34.2502 0 76.5C0 118.75 34.2502 153 76.5 153ZM76.5 141C112.122 141 141 112.122 141 76.5C141 40.8776 112.122 12 76.5 12C40.8776 12 12 40.8776 12 76.5C12 112.122 40.8776 141 76.5 141Z" fill="#5F9357"/>
<g clip-path="url(#clip0_847_4276)">
<path d="M64 92.8L50 78.8C48.44 77.24 45.96 77.24 44.4 78.8C42.84 80.36 42.84 82.84 44.4 84.4L61.16 101.16C62.72 102.72 65.24 102.72 66.8 101.16L109.2 58.8C110.76 57.24 110.76 54.76 109.2 53.2C107.64 51.64 105.16 51.64 103.6 53.2L64 92.8Z" fill="#5F9357"/>
</g>
<defs>
<clipPath id="clip0_847_4276">
<rect width="96" height="96" fill="white" transform="translate(28 28)"/>
</clipPath>
</defs>
</svg>
