<svg width="153" height="153" viewBox="0 0 153 153" fill="none" xmlns="http://www.w3.org/2000/svg">
<path fill-rule="evenodd" clip-rule="evenodd" d="M76.5 153C118.75 153 153 118.75 153 76.5C153 34.2502 118.75 0 76.5 0C34.2502 0 0 34.2502 0 76.5C0 118.75 34.2502 153 76.5 153ZM76.5 141C112.122 141 141 112.122 141 76.5C141 40.8776 112.122 12 76.5 12C40.8776 12 12 40.8776 12 76.5C12 112.122 40.8776 141 76.5 141Z" fill="#C74635"/>
<path d="M68.0122 103.997C68.0122 102.816 68.2448 101.646 68.6968 100.555C69.1488 99.4637 69.8113 98.4722 70.6465 97.637C71.4816 96.8019 72.4731 96.1394 73.5643 95.6874C74.6555 95.2354 75.825 95.0028 77.0061 95.0028C78.1872 95.0028 79.3567 95.2354 80.4479 95.6874C81.5391 96.1394 82.5306 96.8019 83.3657 97.637C84.2009 98.4722 84.8634 99.4637 85.3154 100.555C85.7674 101.646 86 102.816 86 103.997C86 106.382 85.0524 108.67 83.3657 110.356C81.6791 112.043 79.3914 112.991 77.0061 112.991C74.6208 112.991 72.3331 112.043 70.6465 110.356C68.9598 108.67 68.0122 106.382 68.0122 103.997ZM68.8936 49.9883C68.7738 48.8537 68.894 47.7065 69.2462 46.6213C69.5984 45.536 70.1748 44.537 70.9381 43.6889C71.7014 42.8408 72.6344 42.1627 73.6767 41.6985C74.7189 41.2343 75.8472 40.9944 76.9881 40.9944C78.1291 40.9944 79.2573 41.2343 80.2996 41.6985C81.3418 42.1627 82.2749 42.8408 83.0381 43.6889C83.8014 44.537 84.3778 45.536 84.7301 46.6213C85.0823 47.7065 85.2024 48.8537 85.0826 49.9883L81.9348 81.5299C81.8069 82.7528 81.2306 83.8849 80.3171 84.7078C79.4036 85.5308 78.2176 85.9862 76.9881 85.9862C75.7586 85.9862 74.5727 85.5308 73.6592 84.7078C72.7457 83.8849 72.1694 82.7528 72.0415 81.5299L68.8936 49.9883Z" fill="#C74635"/>
</svg>
