<svg width="188" height="202" viewBox="0 0 188 202" fill="none" xmlns="http://www.w3.org/2000/svg">
<path fill-rule="evenodd" clip-rule="evenodd" d="M30.5732 0.704102C14.0047 0.704102 0.573242 14.1355 0.573242 30.7041V193.615C0.573242 198.033 4.15497 201.615 8.57325 201.615H8.60205V49.8662C8.60205 33.2976 22.0335 19.8662 38.6021 19.8662H150.128C166.696 19.8662 180.128 33.2977 180.128 49.8662V201.584C184.218 201.229 187.427 197.797 187.427 193.615V30.7041C187.427 14.1356 173.995 0.704102 157.427 0.704102H30.5732Z" fill="#D9D9D9"/>
<rect x="25.6599" y="103.052" width="138.14" height="25.6403" rx="7" stroke="#D9D9D9" stroke-width="2"/>
<rect x="30.499" y="143.867" width="122.623" height="7.79598" rx="3.89799" fill="#CBCBCB"/>
<rect x="30.499" y="156.624" width="84.668" height="3.54363" rx="1.77181" fill="#D9D9D9"/>
<rect x="30.499" y="163.002" width="77.369" height="3.54363" rx="1.77181" fill="#D9D9D9"/>
<path d="M36.5704 61.0034V48.7634H40.2964C41.2084 48.7634 41.9284 48.8954 42.4564 49.1594C42.9964 49.4234 43.3804 49.7954 43.6084 50.2754C43.8484 50.7554 43.9684 51.3194 43.9684 51.9674V52.4714C43.9684 53.4194 43.5604 54.1454 42.7444 54.6494C43.3204 54.8774 43.7584 55.2074 44.0584 55.6394C44.3584 56.0714 44.5084 56.5874 44.5084 57.1874V57.6914C44.5084 58.3514 44.3884 58.9334 44.1484 59.4374C43.9084 59.9294 43.5124 60.3134 42.9604 60.5894C42.4084 60.8654 41.6704 61.0034 40.7464 61.0034H36.5704ZM40.2964 50.7434H38.7304V53.8034H40.2964C40.7764 53.8034 41.1364 53.6954 41.3764 53.4794C41.6284 53.2514 41.7544 52.9454 41.7544 52.5614V51.9674C41.7544 51.5834 41.6284 51.2834 41.3764 51.0674C41.1364 50.8514 40.7764 50.7434 40.2964 50.7434ZM40.7464 55.7834H38.7304V59.0234H40.7464C41.2504 59.0234 41.6344 58.9034 41.8984 58.6634C42.1624 58.4234 42.2944 58.0994 42.2944 57.6914V57.0974C42.2944 56.6894 42.1624 56.3714 41.8984 56.1434C41.6344 55.9034 41.2504 55.7834 40.7464 55.7834ZM53.7417 61.0934C53.1297 61.0934 52.6377 60.9674 52.2657 60.7154C51.9057 60.4634 51.6417 60.1514 51.4737 59.7794C50.9577 60.2594 50.4597 60.6134 49.9797 60.8414C49.4997 61.0694 48.9837 61.1834 48.4317 61.1834C47.6277 61.1834 47.0337 60.9254 46.6497 60.4094C46.2777 59.8934 46.0917 59.2394 46.0917 58.4474C46.0917 57.9194 46.1877 57.4574 46.3797 57.0614C46.5837 56.6534 46.9137 56.3354 47.3697 56.1074C47.8257 55.8794 48.4497 55.7654 49.2417 55.7654C49.5537 55.7654 49.8777 55.7894 50.2137 55.8374C50.5497 55.8734 50.8857 55.9214 51.2217 55.9814V54.9194C51.2217 54.4154 51.0837 54.0734 50.8077 53.8934C50.5317 53.7014 50.1597 53.6054 49.6917 53.6054C49.3317 53.6054 48.9357 53.6534 48.5037 53.7494C48.0837 53.8454 47.6277 53.9954 47.1357 54.1994L46.5417 52.4354C47.7537 51.9434 48.8517 51.6974 49.8357 51.6974C50.7237 51.6974 51.4077 51.8474 51.8877 52.1474C52.3797 52.4474 52.7217 52.8434 52.9137 53.3354C53.1057 53.8274 53.2017 54.3554 53.2017 54.9194V58.4294C53.2017 58.6094 53.2497 58.7834 53.3457 58.9514C53.4537 59.1074 53.6577 59.1854 53.9577 59.1854H54.1557V61.0934H53.7417ZM48.0897 58.4114C48.0897 58.7354 48.1617 58.9934 48.3057 59.1854C48.4497 59.3654 48.6597 59.4554 48.9357 59.4554C49.2117 59.4554 49.5237 59.3834 49.8717 59.2394C50.2197 59.0954 50.6697 58.7594 51.2217 58.2314V57.4574C50.5977 57.3494 49.9857 57.2954 49.3857 57.2954C48.9177 57.2954 48.5817 57.3914 48.3777 57.5834C48.1857 57.7754 48.0897 58.0514 48.0897 58.4114ZM61.4428 60.6974C61.1308 60.8414 60.7708 60.9554 60.3628 61.0394C59.9548 61.1354 59.5408 61.1834 59.1208 61.1834C58.4248 61.1834 57.8668 61.0394 57.4468 60.7514C57.0268 60.4634 56.7208 60.0614 56.5288 59.5454C56.3488 59.0294 56.2588 58.4414 56.2588 57.7814V53.6774H54.7828V51.8774H56.2588V49.5014H58.3288V51.8774H61.1728V53.6774H58.3288V57.7814C58.3288 58.3334 58.4308 58.7174 58.6348 58.9334C58.8508 59.1374 59.1568 59.2394 59.5528 59.2394C59.7448 59.2394 59.9488 59.2214 60.1648 59.1854C60.3928 59.1374 60.6448 59.0594 60.9208 58.9514L61.4428 60.6974ZM68.5971 60.6974C68.2851 60.8414 67.9251 60.9554 67.5171 61.0394C67.1091 61.1354 66.6951 61.1834 66.2751 61.1834C65.5791 61.1834 65.0211 61.0394 64.6011 60.7514C64.1811 60.4634 63.8751 60.0614 63.6831 59.5454C63.5031 59.0294 63.4131 58.4414 63.4131 57.7814V53.6774H61.9371V51.8774H63.4131V49.5014H65.4831V51.8774H68.3271V53.6774H65.4831V57.7814C65.4831 58.3334 65.5851 58.7174 65.7891 58.9334C66.0051 59.1374 66.3111 59.2394 66.7071 59.2394C66.8991 59.2394 67.1031 59.2214 67.3191 59.1854C67.5471 59.1374 67.7991 59.0594 68.0751 58.9514L68.5971 60.6974ZM77.1914 60.4814C76.5674 60.7334 75.9794 60.9134 75.4274 61.0214C74.8754 61.1294 74.3534 61.1834 73.8614 61.1834C72.5054 61.1834 71.4794 60.7994 70.7834 60.0314C70.0874 59.2634 69.7394 58.2434 69.7394 56.9714V55.8914C69.7394 55.0394 69.8954 54.3014 70.2074 53.6774C70.5194 53.0534 70.9634 52.5674 71.5394 52.2194C72.1154 51.8714 72.7934 51.6974 73.5734 51.6974C74.2094 51.6974 74.8034 51.8294 75.3554 52.0934C75.9194 52.3454 76.3754 52.7474 76.7234 53.2994C77.0834 53.8394 77.2634 54.5354 77.2634 55.3874C77.2634 55.6394 77.2454 55.9094 77.2094 56.1974C77.1734 56.4734 77.1134 56.7674 77.0294 57.0794H71.7374C71.7614 57.8234 71.9474 58.3814 72.2954 58.7534C72.6434 59.1254 73.2014 59.3114 73.9694 59.3114C74.3774 59.3114 74.7974 59.2634 75.2294 59.1674C75.6734 59.0714 76.1294 58.9274 76.5974 58.7354L77.1914 60.4814ZM73.5734 53.4434C73.0214 53.4434 72.5894 53.6234 72.2774 53.9834C71.9774 54.3314 71.8034 54.8354 71.7554 55.4954H75.2114C75.2234 55.4354 75.2294 55.3814 75.2294 55.3334C75.2294 55.2734 75.2294 55.2194 75.2294 55.1714C75.2294 54.5954 75.0674 54.1634 74.7434 53.8754C74.4194 53.5874 74.0294 53.4434 73.5734 53.4434ZM84.7961 53.7674C84.2321 53.7674 83.6921 53.8574 83.1761 54.0374C82.6721 54.2054 82.1861 54.4814 81.7181 54.8654V61.0034H79.6481V51.8774H81.6101V53.2814C82.2221 52.7054 82.7681 52.2974 83.2481 52.0574C83.7281 51.8174 84.2441 51.6974 84.7961 51.6974V53.7674ZM90.299 61.9034C89.903 63.0074 89.399 63.7994 88.787 64.2794C88.175 64.7714 87.335 65.0174 86.267 65.0174V62.9474C86.903 62.9234 87.401 62.7794 87.761 62.5154C88.133 62.2634 88.409 61.9094 88.589 61.4534L88.751 61.0394L85.493 51.8774H87.545L89.111 56.4314L89.723 58.3574L90.317 56.4314L91.811 51.8774H93.863L90.299 61.9034ZM45.2284 75.5874V78.1614C45.2284 79.7214 44.8384 80.9514 44.0584 81.8514C43.2784 82.7394 42.1384 83.1834 40.6384 83.1834C39.1264 83.1834 37.9804 82.7394 37.2004 81.8514C36.4324 80.9514 36.0484 79.7214 36.0484 78.1614V75.5874C36.0484 74.0274 36.4324 72.8034 37.2004 71.9154C37.9804 71.0274 39.1264 70.5834 40.6384 70.5834C42.1384 70.5834 43.2784 71.0274 44.0584 71.9154C44.8384 72.8034 45.2284 74.0274 45.2284 75.5874ZM43.0144 75.5874C43.0144 74.6034 42.8224 73.8654 42.4384 73.3734C42.0544 72.8694 41.4544 72.6174 40.6384 72.6174C39.8224 72.6174 39.2224 72.8694 38.8384 73.3734C38.4544 73.8654 38.2624 74.6034 38.2624 75.5874V78.1614C38.2624 79.1454 38.4544 79.8894 38.8384 80.3934C39.2224 80.8974 39.8224 81.1494 40.6384 81.1494C41.4544 81.1494 42.0544 80.8974 42.4384 80.3934C42.8224 79.8894 43.0144 79.1454 43.0144 78.1614V75.5874ZM51.7201 83.1834C51.4201 83.1834 51.1141 83.1534 50.8021 83.0934C50.5021 83.0334 50.1961 82.9494 49.8841 82.8414V86.8374H47.8141V73.8774H49.7761V75.1194C50.3401 74.5554 50.8201 74.1774 51.2161 73.9854C51.6121 73.7934 52.0261 73.6974 52.4581 73.6974C53.4541 73.6974 54.2221 74.0694 54.7621 74.8134C55.3021 75.5574 55.5721 76.6014 55.5721 77.9454V78.9174C55.5721 80.2254 55.2421 81.2634 54.5821 82.0314C53.9221 82.7994 52.9681 83.1834 51.7201 83.1834ZM51.9001 75.6234C51.6241 75.6234 51.3301 75.7074 51.0181 75.8754C50.7181 76.0314 50.3401 76.3374 49.8841 76.7934V80.9694C50.4721 81.2094 51.0121 81.3294 51.5041 81.3294C52.2001 81.3294 52.6981 81.1134 52.9981 80.6814C53.2981 80.2494 53.4481 79.6614 53.4481 78.9174V77.9454C53.4481 77.1414 53.3101 76.5534 53.0341 76.1814C52.7701 75.8094 52.3921 75.6234 51.9001 75.6234ZM63.4642 82.6974C63.1522 82.8414 62.7922 82.9554 62.3842 83.0394C61.9762 83.1354 61.5622 83.1834 61.1422 83.1834C60.4462 83.1834 59.8882 83.0394 59.4682 82.7514C59.0482 82.4634 58.7422 82.0614 58.5502 81.5454C58.3702 81.0294 58.2802 80.4414 58.2802 79.7814V75.6774H56.8042V73.8774H58.2802V71.5014H60.3502V73.8774H63.1942V75.6774H60.3502V79.7814C60.3502 80.3334 60.4522 80.7174 60.6562 80.9334C60.8722 81.1374 61.1782 81.2394 61.5742 81.2394C61.7662 81.2394 61.9702 81.2214 62.1862 81.1854C62.4142 81.1374 62.6662 81.0594 62.9422 80.9514L63.4642 82.6974ZM67.2525 72.1494H65.0745V70.0074H67.2525V72.1494ZM67.1985 83.0034H65.1285V73.8774H67.1985V83.0034ZM72.1204 76.6854V83.0034H70.0504V73.8774H72.0124V75.0834C72.5764 74.5914 73.0984 74.2374 73.5784 74.0214C74.0584 73.8054 74.5504 73.6974 75.0544 73.6974C76.1704 73.6974 76.9324 74.1894 77.3404 75.1734C77.9404 74.6454 78.4984 74.2674 79.0144 74.0394C79.5304 73.8114 80.0524 73.6974 80.5804 73.6974C81.4204 73.6974 82.0624 73.9794 82.5064 74.5434C82.9504 75.0954 83.1724 75.8754 83.1724 76.8834V83.0034H81.1024V77.1354C81.1024 76.1274 80.7184 75.6234 79.9504 75.6234C79.6504 75.6234 79.3204 75.6954 78.9604 75.8394C78.6004 75.9834 78.1624 76.2654 77.6464 76.6854V83.0034H75.5764V77.1354C75.5764 76.1274 75.1924 75.6234 74.4244 75.6234C74.1244 75.6234 73.7944 75.6954 73.4344 75.8394C73.0744 75.9834 72.6364 76.2654 72.1204 76.6854ZM88.0299 72.1494H85.8519V70.0074H88.0299V72.1494ZM87.9759 83.0034H85.9059V73.8774H87.9759V83.0034ZM96.5518 81.2034V83.0034H90.0358V81.3834L93.8878 75.6774H90.2158V73.8774H96.3718V75.4974L92.5198 81.2034H96.5518ZM105.509 83.0934C104.897 83.0934 104.405 82.9674 104.033 82.7154C103.673 82.4634 103.409 82.1514 103.241 81.7794C102.725 82.2594 102.227 82.6134 101.747 82.8414C101.267 83.0694 100.751 83.1834 100.199 83.1834C99.3953 83.1834 98.8013 82.9254 98.4173 82.4094C98.0453 81.8934 97.8593 81.2394 97.8593 80.4474C97.8593 79.9194 97.9553 79.4574 98.1473 79.0614C98.3513 78.6534 98.6813 78.3354 99.1373 78.1074C99.5933 77.8794 100.217 77.7654 101.009 77.7654C101.321 77.7654 101.645 77.7894 101.981 77.8374C102.317 77.8734 102.653 77.9214 102.989 77.9814V76.9194C102.989 76.4154 102.851 76.0734 102.575 75.8934C102.299 75.7014 101.927 75.6054 101.459 75.6054C101.099 75.6054 100.703 75.6534 100.271 75.7494C99.8513 75.8454 99.3953 75.9954 98.9033 76.1994L98.3093 74.4354C99.5213 73.9434 100.619 73.6974 101.603 73.6974C102.491 73.6974 103.175 73.8474 103.655 74.1474C104.147 74.4474 104.489 74.8434 104.681 75.3354C104.873 75.8274 104.969 76.3554 104.969 76.9194V80.4294C104.969 80.6094 105.017 80.7834 105.113 80.9514C105.221 81.1074 105.425 81.1854 105.725 81.1854H105.923V83.0934H105.509ZM99.8573 80.4114C99.8573 80.7354 99.9293 80.9934 100.073 81.1854C100.217 81.3654 100.427 81.4554 100.703 81.4554C100.979 81.4554 101.291 81.3834 101.639 81.2394C101.987 81.0954 102.437 80.7594 102.989 80.2314V79.4574C102.365 79.3494 101.753 79.2954 101.153 79.2954C100.685 79.2954 100.349 79.3914 100.145 79.5834C99.9533 79.7754 99.8573 80.0514 99.8573 80.4114ZM113.21 82.6974C112.898 82.8414 112.538 82.9554 112.13 83.0394C111.722 83.1354 111.308 83.1834 110.888 83.1834C110.192 83.1834 109.634 83.0394 109.214 82.7514C108.794 82.4634 108.488 82.0614 108.296 81.5454C108.116 81.0294 108.026 80.4414 108.026 79.7814V75.6774H106.55V73.8774H108.026V71.5014H110.096V73.8774H112.94V75.6774H110.096V79.7814C110.096 80.3334 110.198 80.7174 110.402 80.9334C110.618 81.1374 110.924 81.2394 111.32 81.2394C111.512 81.2394 111.716 81.2214 111.932 81.1854C112.16 81.1374 112.412 81.0594 112.688 80.9514L113.21 82.6974ZM116.999 72.1494H114.821V70.0074H116.999V72.1494ZM116.945 83.0034H114.875V73.8774H116.945V83.0034ZM127.267 77.8914V78.9714C127.267 80.2434 126.919 81.2634 126.223 82.0314C125.527 82.7994 124.543 83.1834 123.271 83.1834C121.999 83.1834 121.015 82.7994 120.319 82.0314C119.623 81.2634 119.275 80.2434 119.275 78.9714V77.8914C119.275 76.6194 119.617 75.6054 120.301 74.8494C120.997 74.0814 121.987 73.6974 123.271 73.6974C124.555 73.6974 125.539 74.0814 126.223 74.8494C126.919 75.6054 127.267 76.6194 127.267 77.8914ZM125.143 77.8914C125.143 77.1594 124.981 76.5894 124.657 76.1814C124.333 75.7614 123.871 75.5514 123.271 75.5514C122.671 75.5514 122.209 75.7614 121.885 76.1814C121.561 76.5894 121.399 77.1594 121.399 77.8914V78.9714C121.399 79.7034 121.561 80.2794 121.885 80.6994C122.209 81.1194 122.671 81.3294 123.271 81.3294C123.871 81.3294 124.333 81.1194 124.657 80.6994C124.981 80.2794 125.143 79.7034 125.143 78.9714V77.8914ZM134.052 75.6234C133.752 75.6234 133.41 75.6954 133.026 75.8394C132.642 75.9834 132.186 76.2654 131.658 76.6854V83.0034H129.588V73.8774H131.55V75.1014C132.114 74.6094 132.648 74.2554 133.152 74.0394C133.656 73.8114 134.166 73.6974 134.682 73.6974C135.558 73.6974 136.224 73.9794 136.68 74.5434C137.136 75.0954 137.364 75.8754 137.364 76.8834V83.0034H135.294V77.1354C135.294 76.1274 134.88 75.6234 134.052 75.6234Z" fill="#6A6A6A"/>
<path d="M36.5126 119.861V113.061H38.8126C39.626 113.061 40.246 113.288 40.6726 113.741C41.0993 114.195 41.3126 114.861 41.3126 115.741V117.171C41.3126 118.058 41.0993 118.728 40.6726 119.181C40.246 119.635 39.626 119.861 38.8126 119.861H36.5126ZM38.7626 114.211H37.7126V118.711H38.7626C39.236 118.711 39.5726 118.595 39.7726 118.361C39.9793 118.128 40.0826 117.731 40.0826 117.171V115.741C40.0826 115.188 39.9793 114.795 39.7726 114.561C39.5726 114.328 39.236 114.211 38.7626 114.211ZM46.8994 117.021V117.621C46.8994 118.328 46.706 118.895 46.3194 119.321C45.9327 119.748 45.386 119.961 44.6794 119.961C43.9727 119.961 43.426 119.748 43.0394 119.321C42.6527 118.895 42.4594 118.328 42.4594 117.621V117.021C42.4594 116.315 42.6494 115.751 43.0294 115.331C43.416 114.905 43.966 114.691 44.6794 114.691C45.3927 114.691 45.9394 114.905 46.3194 115.331C46.706 115.751 46.8994 116.315 46.8994 117.021ZM45.7194 117.021C45.7194 116.615 45.6294 116.298 45.4494 116.071C45.2694 115.838 45.0127 115.721 44.6794 115.721C44.346 115.721 44.0894 115.838 43.9094 116.071C43.7294 116.298 43.6394 116.615 43.6394 117.021V117.621C43.6394 118.028 43.7294 118.348 43.9094 118.581C44.0894 118.815 44.346 118.931 44.6794 118.931C45.0127 118.931 45.2694 118.815 45.4494 118.581C45.6294 118.348 45.7194 118.028 45.7194 117.621V117.021ZM52.6708 115.761C52.5041 115.761 52.3141 115.801 52.1008 115.881C51.8874 115.961 51.6341 116.118 51.3408 116.351V119.861H50.1908V114.791H51.2808V115.471C51.5941 115.198 51.8908 115.001 52.1708 114.881C52.4508 114.755 52.7341 114.691 53.0208 114.691C53.5074 114.691 53.8774 114.848 54.1308 115.161C54.3841 115.468 54.5108 115.901 54.5108 116.461V119.861H53.3608V116.601C53.3608 116.041 53.1308 115.761 52.6708 115.761ZM60.1806 117.021V117.621C60.1806 118.328 59.9873 118.895 59.6006 119.321C59.2139 119.748 58.6673 119.961 57.9606 119.961C57.2539 119.961 56.7073 119.748 56.3206 119.321C55.9339 118.895 55.7406 118.328 55.7406 117.621V117.021C55.7406 116.315 55.9306 115.751 56.3106 115.331C56.6973 114.905 57.2473 114.691 57.9606 114.691C58.6739 114.691 59.2206 114.905 59.6006 115.331C59.9873 115.751 60.1806 116.315 60.1806 117.021ZM59.0006 117.021C59.0006 116.615 58.9106 116.298 58.7306 116.071C58.5506 115.838 58.2939 115.721 57.9606 115.721C57.6273 115.721 57.3706 115.838 57.1906 116.071C57.0106 116.298 56.9206 116.615 56.9206 117.021V117.621C56.9206 118.028 57.0106 118.348 57.1906 118.581C57.3706 118.815 57.6273 118.931 57.9606 118.931C58.2939 118.931 58.5506 118.815 58.7306 118.581C58.9106 118.348 59.0006 118.028 59.0006 117.621V117.021ZM64.5201 119.691C64.3467 119.771 64.1467 119.835 63.9201 119.881C63.6934 119.935 63.4634 119.961 63.2301 119.961C62.8434 119.961 62.5334 119.881 62.3001 119.721C62.0667 119.561 61.8967 119.338 61.7901 119.051C61.6901 118.765 61.6401 118.438 61.6401 118.071V115.791H60.8201V114.791H61.6401V113.471H62.7901V114.791H64.3701V115.791H62.7901V118.071C62.7901 118.378 62.8467 118.591 62.9601 118.711C63.0801 118.825 63.2501 118.881 63.4701 118.881C63.5767 118.881 63.6901 118.871 63.8101 118.851C63.9367 118.825 64.0767 118.781 64.2301 118.721L64.5201 119.691ZM71.5966 117.021V117.621C71.5966 118.328 71.4033 118.895 71.0166 119.321C70.6299 119.748 70.0833 119.961 69.3766 119.961C68.6699 119.961 68.1233 119.748 67.7366 119.321C67.3499 118.895 67.1566 118.328 67.1566 117.621V117.021C67.1566 116.315 67.3466 115.751 67.7266 115.331C68.1133 114.905 68.6633 114.691 69.3766 114.691C70.0899 114.691 70.6366 114.905 71.0166 115.331C71.4033 115.751 71.5966 116.315 71.5966 117.021ZM70.4166 117.021C70.4166 116.615 70.3266 116.298 70.1466 116.071C69.9666 115.838 69.7099 115.721 69.3766 115.721C69.0433 115.721 68.7866 115.838 68.6066 116.071C68.4266 116.298 68.3366 116.615 68.3366 117.021V117.621C68.3366 118.028 68.4266 118.348 68.6066 118.581C68.7866 118.815 69.0433 118.931 69.3766 118.931C69.7099 118.931 69.9666 118.815 70.1466 118.581C70.3266 118.348 70.4166 118.028 70.4166 117.621V117.021ZM75.0561 119.961C74.8894 119.961 74.7194 119.945 74.5461 119.911C74.3794 119.878 74.2094 119.831 74.0361 119.771V121.991H72.8861V114.791H73.9761V115.481C74.2894 115.168 74.5561 114.958 74.7761 114.851C74.9961 114.745 75.2261 114.691 75.4661 114.691C76.0194 114.691 76.4461 114.898 76.7461 115.311C77.0461 115.725 77.1961 116.305 77.1961 117.051V117.591C77.1961 118.318 77.0127 118.895 76.6461 119.321C76.2794 119.748 75.7494 119.961 75.0561 119.961ZM75.1561 115.761C75.0027 115.761 74.8394 115.808 74.6661 115.901C74.4994 115.988 74.2894 116.158 74.0361 116.411V118.731C74.3627 118.865 74.6627 118.931 74.9361 118.931C75.3227 118.931 75.5994 118.811 75.7661 118.571C75.9327 118.331 76.0161 118.005 76.0161 117.591V117.051C76.0161 116.605 75.9394 116.278 75.7861 116.071C75.6394 115.865 75.4294 115.761 75.1561 115.761ZM81.5806 119.691C81.4073 119.771 81.2073 119.835 80.9806 119.881C80.7539 119.935 80.5239 119.961 80.2906 119.961C79.9039 119.961 79.5939 119.881 79.3606 119.721C79.1273 119.561 78.9573 119.338 78.8506 119.051C78.7506 118.765 78.7006 118.438 78.7006 118.071V115.791H77.8806V114.791H78.7006V113.471H79.8506V114.791H81.4306V115.791H79.8506V118.071C79.8506 118.378 79.9073 118.591 80.0206 118.711C80.1406 118.825 80.3106 118.881 80.5306 118.881C80.6373 118.881 80.7506 118.871 80.8706 118.851C80.9973 118.825 81.1373 118.781 81.2906 118.721L81.5806 119.691ZM83.6852 113.831H82.4752V112.641H83.6852V113.831ZM83.6552 119.861H82.5052V114.791H83.6552V119.861ZM86.3896 116.351V119.861H85.2396V114.791H86.3296V115.461C86.6429 115.188 86.9329 114.991 87.1996 114.871C87.4663 114.751 87.7396 114.691 88.0196 114.691C88.6396 114.691 89.0629 114.965 89.2896 115.511C89.6229 115.218 89.9329 115.008 90.2196 114.881C90.5063 114.755 90.7963 114.691 91.0896 114.691C91.5563 114.691 91.9129 114.848 92.1596 115.161C92.4063 115.468 92.5296 115.901 92.5296 116.461V119.861H91.3796V116.601C91.3796 116.041 91.1663 115.761 90.7396 115.761C90.5729 115.761 90.3896 115.801 90.1896 115.881C89.9896 115.961 89.7463 116.118 89.4596 116.351V119.861H88.3096V116.601C88.3096 116.041 88.0963 115.761 87.6696 115.761C87.5029 115.761 87.3196 115.801 87.1196 115.881C86.9196 115.961 86.6763 116.118 86.3896 116.351ZM95.2282 113.831H94.0182V112.641H95.2282V113.831ZM95.1982 119.861H94.0482V114.791H95.1982V119.861ZM99.9626 118.861V119.861H96.3426V118.961L98.4826 115.791H96.4426V114.791H99.8626V115.691L97.7226 118.861H99.9626ZM104.949 119.571C104.602 119.711 104.276 119.811 103.969 119.871C103.662 119.931 103.372 119.961 103.099 119.961C102.346 119.961 101.776 119.748 101.389 119.321C101.002 118.895 100.809 118.328 100.809 117.621V117.021C100.809 116.548 100.896 116.138 101.069 115.791C101.242 115.445 101.489 115.175 101.809 114.981C102.129 114.788 102.506 114.691 102.939 114.691C103.292 114.691 103.622 114.765 103.929 114.911C104.242 115.051 104.496 115.275 104.689 115.581C104.889 115.881 104.989 116.268 104.989 116.741C104.989 116.881 104.979 117.031 104.959 117.191C104.939 117.345 104.906 117.508 104.859 117.681H101.919C101.932 118.095 102.036 118.405 102.229 118.611C102.422 118.818 102.732 118.921 103.159 118.921C103.386 118.921 103.619 118.895 103.859 118.841C104.106 118.788 104.359 118.708 104.619 118.601L104.949 119.571ZM102.939 115.661C102.632 115.661 102.392 115.761 102.219 115.961C102.052 116.155 101.956 116.435 101.929 116.801H103.849C103.856 116.768 103.859 116.738 103.859 116.711C103.859 116.678 103.859 116.648 103.859 116.621C103.859 116.301 103.769 116.061 103.589 115.901C103.409 115.741 103.192 115.661 102.939 115.661Z" fill="#6A6A6A"/>
<path d="M128.915 131.533C125.254 127.169 125.907 120.766 130.375 117.232V117.232C134.842 113.697 141.433 114.37 145.094 118.734L183.367 164.346L167.188 177.145L128.915 131.533Z" fill="#D9D9D9"/>
<path d="M131.769 129.605C129.308 126.671 129.747 122.367 132.75 119.991V119.991C135.753 117.615 140.184 118.067 142.645 121.001L148.9 128.456C149.137 128.738 149.095 129.152 148.806 129.38L138.976 137.157C138.687 137.385 138.261 137.342 138.025 137.06L131.769 129.605Z" fill="#B5B5B5"/>
</svg>
