<svg width="108" height="108" viewBox="0 0 108 108" fill="none" xmlns="http://www.w3.org/2000/svg">
<path d="M10.1217 0C4.53162 0 0 4.52668 0 10.1105V97.7351C0 103.319 4.53162 107.846 10.1217 107.846H16.8695C22.4595 107.846 26.9912 103.319 26.9912 97.7351V10.1105C26.9912 4.52668 22.4595 0 16.8695 0H10.1217ZM43.8606 0C38.2706 0 33.739 4.52668 33.739 10.1105V97.7351C33.739 103.319 38.2706 107.846 43.8606 107.846H50.6085C56.1985 107.846 60.7298 103.319 60.7298 97.7351V10.1105C60.7298 4.52668 56.1985 0 50.6085 0H43.8606ZM92.5959 28.0589C91.2999 22.4228 85.5449 19.0186 79.9741 20.5937L74.9447 22.0158C69.8471 23.4573 66.7245 28.5821 67.7849 33.7676L81.3106 99.9099C82.4676 105.566 88.122 109.108 93.7225 107.685L100.371 105.996C105.7 104.642 108.972 99.2869 107.741 93.9342L92.5959 28.0589Z" fill="#C74F35"/>
</svg>
